<?xml version="1.0" standalone="no"?><!DOCTYPE svg PUBLIC "-//W3C//DTD SVG 1.1//EN" "http://www.w3.org/Graphics/SVG/1.1/DTD/svg11.dtd"><svg class="icon" width="200px" height="200.00px" viewBox="0 0 1024 1024" version="1.1" xmlns="http://www.w3.org/2000/svg"><path fill="#333333" d="M78.657 311.343h28.835V484.35H78.657c-15.877 0-28.835-12.774-28.835-28.834v-115.34c0-15.877 12.958-28.834 28.835-28.834z m864.861 0h-28.835V484.35h28.835c15.877 0 28.835-12.774 28.835-28.834v-115.34c0.182-15.877-12.775-28.834-28.835-28.834z m-86.322-57.67V772.7c0 31.938-25.732 57.67-57.67 57.67v57.67c0 31.937-25.732 57.67-57.669 57.67h-57.67c-31.937 0-57.67-25.916-57.67-57.67v-57.67H395.84v57.67c0 31.937-25.733 57.67-57.67 57.67H280.5c-31.937 0-57.67-25.916-57.67-57.67v-57.67c-31.936 0-57.669-25.915-57.669-57.67V253.673c0-95.447 77.562-173.009 173.009-173.009h346.017c95.447 0.183 173.01 77.562 173.01 173.01zM395.84 196.186h230.678v-57.67H395.84v57.67zM338.17 715.03c0-31.938-25.732-57.67-57.67-57.67s-57.67 25.732-57.67 57.67 25.733 57.67 57.67 57.67 57.67-25.733 57.67-57.67z m461.357 0c0-31.938-25.733-57.67-57.67-57.67s-57.67 25.732-57.67 57.67 25.733 57.67 57.67 57.67c31.755 0 57.67-25.733 57.67-57.67z m0-461.357H222.83v346.018h576.696V253.673z" /></svg>