<svg xmlns="http://www.w3.org/2000/svg" width="20.003" height="19.631" viewBox="0 0 20.003 19.631">
  <defs>
    <style>
      .cls-1 {
        fill: #79b2eb;
      }

      .cls-2 {
        fill: #50a1f0;
      }
    </style>
  </defs>
  <g id="chelianglicheng" transform="translate(-82 -94.32)">
    <path id="路径_163" data-name="路径 163" class="cls-1" d="M92,113.951a10.1,10.1,0,0,1-3.888-.77,9.977,9.977,0,0,1-3.178-2.1,9.776,9.776,0,0,1-2.146-3.12,9.683,9.683,0,0,1-.331-6.768.744.744,0,0,1,1.418.454,8.154,8.154,0,0,0-.387,2.489A8.515,8.515,0,1,0,92,95.809a.744.744,0,0,1,0-1.489,10.1,10.1,0,0,1,3.888.77,9.977,9.977,0,0,1,3.178,2.1,9.776,9.776,0,0,1,2.146,3.12,9.675,9.675,0,0,1,0,7.652,9.776,9.776,0,0,1-2.146,3.12,9.984,9.984,0,0,1-3.178,2.1,10.1,10.1,0,0,1-3.888.77Z"/>
    <path id="路径_164" data-name="路径 164" class="cls-2" d="M369.5,99.272a.745.745,0,0,1-.745-.744V95.854a.744.744,0,0,1,1.489,0v2.674A.744.744,0,0,1,369.5,99.272Zm-.046,7.172a2.4,2.4,0,0,1-.806-.162.745.745,0,0,1-.377-.3l-2.049-3.24a.744.744,0,0,1,1.1-.976l2.119,1.72.88.714a.743.743,0,0,1,.231.326,1.574,1.574,0,0,1-.224,1.583,1.18,1.18,0,0,1-.81.336Z" transform="translate(-277.494 -0.772)"/>
  </g>
</svg>
