<svg xmlns="http://www.w3.org/2000/svg" width="14" height="14" viewBox="0 0 14 14">
  <defs>
    <style>
      .cls-1 {
        fill: #fff;
      }
    </style>
  </defs>
  <path id="cuowu" class="cls-1" d="M49.667,56.667a7,7,0,1,1,7-7A7,7,0,0,1,49.667,56.667Zm.66-7,2.385-2.385a.467.467,0,1,0-.66-.66l-2.385,2.385-2.385-2.385a.467.467,0,1,0-.66.66l2.385,2.385-2.385,2.385a.467.467,0,1,0,.66.66l2.385-2.385,2.385,2.385a.467.467,0,0,0,.66-.66Z" transform="translate(-42.667 -42.667)"/>
</svg>
