<svg xmlns="http://www.w3.org/2000/svg" width="20" height="20" viewBox="0 0 20 20">
  <defs>
    <style>
      .cls-1 {
        fill: #6cb5ff;
      }
    </style>
  </defs>
  <g id="组_169" data-name="组 169" transform="translate(-20 -287.292)">
    <path id="路径_119" data-name="路径 119" class="cls-1" d="M44.8,40.96H36.173a.538.538,0,0,0-.538.538v8.615a.538.538,0,0,0,.538.538H44.8a.538.538,0,0,0,.538-.538V41.491A.538.538,0,0,0,44.8,40.96Zm-.538,8.622H36.712V42.03h7.545Z" transform="translate(-15.635 246.332)"/>
    <path id="路径_120" data-name="路径 120" class="cls-1" d="M38.735,167.894h3.1a.517.517,0,0,0,.516-.519v-3.118a.517.517,0,0,0-.516-.519h-3.1a.517.517,0,0,0-.516.519v3.118A.517.517,0,0,0,38.735,167.894Zm.516-3.118h2.066v2.078H39.251Zm5.166,6.918H36.151a.517.517,0,0,0-.516.519v8.315a.517.517,0,0,0,.516.513h8.265a.517.517,0,0,0,.516-.519v-8.309A.517.517,0,0,0,44.416,171.694Zm-.516,8.315H36.667v-7.277H43.9Zm2.954-2.935a.517.517,0,0,0,.516-.519v-3.823h3.616a.52.52,0,0,0,0-1.04H46.854a.517.517,0,0,0-.516.519v4.345A.517.517,0,0,0,46.854,177.074Zm1.872,2.935H47.37v-.954a.517.517,0,1,0-1.034,0v1.473a.517.517,0,0,0,.516.519h1.872a.52.52,0,0,0,0-1.04Zm6.393-4.342a.517.517,0,0,0-.516.519v3.823H51.762a.52.52,0,0,0,0,1.04h3.358a.517.517,0,0,0,.516-.519v-4.342a.521.521,0,0,0-.15-.368A.514.514,0,0,0,55.119,175.666Zm0-3.973H53.589a.52.52,0,0,0,0,1.04H54.6v1.2H51.407a.52.52,0,0,0,0,1.04h3.654a.509.509,0,0,0,.15-.026.518.518,0,0,0,.415-.51v-2.221a.518.518,0,0,0-.507-.519Z" transform="translate(-15.635 126.243)"/>
    <path id="路径_121" data-name="路径 121" class="cls-1" d="M159.233,58.26h3.08a.516.516,0,0,0,.513-.519V54.625a.516.516,0,0,0-.513-.519h-3.08a.516.516,0,0,0-.513.519v3.118A.516.516,0,0,0,159.233,58.26Zm.513-3.114H161.8v2.078h-2.053ZM175.512,40.96H167.3a.516.516,0,0,0-.513.519v8.308a.516.516,0,0,0,.513.519h8.212a.516.516,0,0,0,.513-.519V41.473A.516.516,0,0,0,175.512,40.96ZM175,49.275h-7.187V41.992H175Z" transform="translate(-136.025 246.332)"/>
    <path id="路径_122" data-name="路径 122" class="cls-1" d="M644.968,167.994H648.2a.529.529,0,0,0,.538-.519v-3.118a.529.529,0,0,0-.538-.517h-3.233a.529.529,0,0,0-.538.519v3.116A.529.529,0,0,0,644.968,167.994Zm.538-3.118h2.157v2.078h-2.155Zm-1.076,8.546a.529.529,0,0,0-.538.519v1.213a.54.54,0,0,0,1.079,0v-1.213a.51.51,0,0,0-.158-.368A.549.549,0,0,0,644.429,173.422Zm3.823,4.857a.52.52,0,1,0,0-1.04h-2.541a.529.529,0,0,0-.538.519v2.87a.54.54,0,0,0,1.079,0v-2.349Z" transform="translate(-611.435 126.143)"/>
  </g>
</svg>
