<svg id="lanlvtubiaozhizuomoban-01" xmlns="http://www.w3.org/2000/svg" width="20" height="19.96" viewBox="0 0 20 19.96">
  <defs>
    <style>
      .cls-1 {
        fill: #79b2eb;
      }

      .cls-2 {
        fill: #50a1f0;
      }
    </style>
  </defs>
  <path id="路径_84" data-name="路径 84" class="cls-1" d="M93.4,99.355h-.009a3.521,3.521,0,0,1-1.4-.237,6.858,6.858,0,0,1-3.133-3.134,3.522,3.522,0,0,1-.237-1.4v-.018a3.521,3.521,0,0,1,.237-1.4,6.858,6.858,0,0,1,3.134-3.133,3.522,3.522,0,0,1,1.4-.237h.018a3.521,3.521,0,0,1,1.4.237,6.858,6.858,0,0,1,3.133,3.134,3.522,3.522,0,0,1,.237,1.4v.018a3.521,3.521,0,0,1-.237,1.4,6.858,6.858,0,0,1-3.133,3.133,3.521,3.521,0,0,1-1.4.237Zm-3.559-4.782a2.41,2.41,0,0,0,.135.923,5.742,5.742,0,0,0,2.5,2.5,3.221,3.221,0,0,0,1.848,0,5.742,5.742,0,0,0,2.5-2.5h0a3.223,3.223,0,0,0,0-1.847,5.742,5.742,0,0,0-2.5-2.5,3.221,3.221,0,0,0-1.848,0,5.743,5.743,0,0,0-2.5,2.5A2.41,2.41,0,0,0,89.843,94.573ZM93.43,109.75a12.289,12.289,0,0,1-1.989-.162l-.015,0A3.378,3.378,0,0,1,89,107.16l0-.015a12.274,12.274,0,0,1,0-3.978l0-.015a3.377,3.377,0,0,1,2.425-2.425l.015,0a12.273,12.273,0,0,1,3.978,0l.015,0a3.378,3.378,0,0,1,2.425,2.425l0,.015a12.274,12.274,0,0,1,0,3.978l0,.015a3.377,3.377,0,0,1-2.425,2.425l-.015,0A12.294,12.294,0,0,1,93.43,109.75Zm-1.78-1.388a11.029,11.029,0,0,0,3.56,0,2.169,2.169,0,0,0,1.426-1.427,11.029,11.029,0,0,0,0-3.56,2.17,2.17,0,0,0-1.426-1.427,11.03,11.03,0,0,0-3.56,0,2.17,2.17,0,0,0-1.426,1.427,11.029,11.029,0,0,0,0,3.56A2.169,2.169,0,0,0,91.65,108.363Zm12.364,1.388a12.289,12.289,0,0,1-1.989-.162l-.015,0a3.378,3.378,0,0,1-2.425-2.425l0-.015a12.274,12.274,0,0,1,0-3.978l0-.015a3.377,3.377,0,0,1,2.425-2.425l.015,0a12.273,12.273,0,0,1,3.978,0l.015,0a3.378,3.378,0,0,1,2.425,2.425l0,.015a12.275,12.275,0,0,1,0,3.978l0,.015a3.377,3.377,0,0,1-2.425,2.425l-.015,0A12.3,12.3,0,0,1,104.014,109.75Zm-1.78-1.388a11.029,11.029,0,0,0,3.56,0,2.17,2.17,0,0,0,1.426-1.427,11.029,11.029,0,0,0,0-3.56,2.17,2.17,0,0,0-1.426-1.427,11.03,11.03,0,0,0-3.56,0,2.17,2.17,0,0,0-1.426,1.426,11.03,11.03,0,0,0,0,3.56A2.169,2.169,0,0,0,102.234,108.363Z" transform="translate(-88.62 -89.79)"/>
  <path id="路径_85" data-name="路径 85" class="cls-2" d="M548.185,103m-4.765,0a4.765,4.765,0,1,0,4.765-4.765A4.765,4.765,0,0,0,543.42,103Z" transform="translate(-532.951 -98.021)"/>
</svg>
