<svg xmlns="http://www.w3.org/2000/svg" width="20.924" height="18" viewBox="0 0 20.924 18">
  <defs>
    <style>
      .cls-1 {
        fill: #3296fa;
      }
    </style>
  </defs>
  <g id="linesel" transform="translate(-65.509 -127.581)">
    <path id="路径_74" data-name="路径 74" class="cls-1" d="M107.294,128.1l-5.028-.006a.712.712,0,0,1,.609.7v3.092a.714.714,0,0,1-1.427,0V128.8a.712.712,0,0,1,.611-.7l-5.048-.006-4.568,17.987H111.92Zm-4.453,17.246a.714.714,0,0,1-1.427,0v-3.092a.714.714,0,0,1,1.427,0Zm0-6.733a.714.714,0,0,1-1.427,0v-3.092a.714.714,0,0,1,1.427,0Z" transform="translate(-26.235 -0.496)"/>
    <path id="路径_75" data-name="路径 75" class="cls-1" d="M715.088,144.635l-4.9-16.506a.816.816,0,0,0-.98-.524.721.721,0,0,0-.559.9l4.9,16.506a.816.816,0,0,0,.98.524A.721.721,0,0,0,715.088,144.635Z" transform="translate(-628.684)"/>
    <path id="路径_76" data-name="路径 76" class="cls-1" d="M71.418,127.606a.816.816,0,0,0-.98.524l-4.9,16.506a.721.721,0,0,0,.559.9.816.816,0,0,0,.98-.524l4.9-16.506A.721.721,0,0,0,71.418,127.606Z" transform="translate(0 -0.001)"/>
  </g>
</svg>
