<svg id="lanlvtubiaozhizuomoban-06" xmlns="http://www.w3.org/2000/svg" width="20" height="23.271" viewBox="0 0 20 23.271">
  <defs>
    <style>
      .cls-1 {
        fill: #50a1f0;
      }

      .cls-2 {
        fill: #79b2eb;
      }
    </style>
  </defs>
  <path id="路径_100" data-name="路径 100" class="cls-1" d="M320.819,111.839m-5.439,0a5.441,5.441,0,1,0,5.439-5.589A5.516,5.516,0,0,0,315.38,111.839Z" transform="translate(-310.819 -106.25)"/>
  <path id="路径_101" data-name="路径 101" class="cls-2" d="M166.037,526.755a35.922,35.922,0,0,1-4.55-.292l-.021,0a6.585,6.585,0,0,1-3.621-1.945,6.045,6.045,0,0,1-1.792-3.8v0a21.56,21.56,0,0,1,.037-2.3V518.4a3.6,3.6,0,0,1,1.372-2.586,5.408,5.408,0,0,1,4.188-.9h.009a25.157,25.157,0,0,0,8.755,0h.009a5.408,5.408,0,0,1,4.188.9,3.6,3.6,0,0,1,1.372,2.586v.011a21.564,21.564,0,0,1,.037,2.3v0a6.045,6.045,0,0,1-1.792,3.8,6.585,6.585,0,0,1-3.621,1.945l-.021,0A35.926,35.926,0,0,1,166.037,526.755Zm-4.346-1.853a34.062,34.062,0,0,0,8.692,0,5.089,5.089,0,0,0,2.74-1.491l0,0a4.5,4.5,0,0,0,1.345-2.753,20.008,20.008,0,0,0-.034-2.124,2.025,2.025,0,0,0-.78-1.472,3.866,3.866,0,0,0-2.98-.589,26.709,26.709,0,0,1-9.284,0,3.865,3.865,0,0,0-2.98.589,2.024,2.024,0,0,0-.78,1.472,19.932,19.932,0,0,0-.034,2.124,4.5,4.5,0,0,0,1.345,2.753l0,0a5.084,5.084,0,0,0,2.739,1.491Z" transform="translate(-156.038 -503.484)"/>
</svg>
