<svg xmlns="http://www.w3.org/2000/svg" width="20" height="20" viewBox="0 0 20 20">
  <defs>
    <style>
      .cls-1 {
        fill: #79b2eb;
      }

      .cls-2 {
        fill: #50a1f0;
      }
    </style>
  </defs>
  <g id="lanlvtubiaozhizuomoban-10" transform="translate(-95.777 -98.297)">
    <path id="路径_114" data-name="路径 114" class="cls-1" d="M105.777,118.3a43.6,43.6,0,0,1-6.326-.462h-.006a4.119,4.119,0,0,1-3.205-3.205v-.006a43.558,43.558,0,0,1,0-12.652v-.006a4.119,4.119,0,0,1,3.205-3.205h.006a43.558,43.558,0,0,1,12.652,0h.006a4.119,4.119,0,0,1,3.205,3.205v.006a43.558,43.558,0,0,1,0,12.652v.006a4.119,4.119,0,0,1-3.205,3.205H112.1a43.56,43.56,0,0,1-6.326.462Zm-6.131-1.765a42.236,42.236,0,0,0,12.263,0,2.819,2.819,0,0,0,2.1-2.1,42.235,42.235,0,0,0,0-12.263,2.819,2.819,0,0,0-2.1-2.1,42.234,42.234,0,0,0-12.263,0,2.818,2.818,0,0,0-2.1,2.1,42.235,42.235,0,0,0,0,12.263A2.818,2.818,0,0,0,99.646,116.533Z" transform="translate(0 0)"/>
    <path id="路径_115" data-name="路径 115" class="cls-2" d="M346.389,479.654H339.4a.877.877,0,0,1,0-1.754h6.992a.877.877,0,1,1,0,1.754Z" transform="translate(-237.123 -370.55)"/>
  </g>
</svg>
