<svg id="lanlvtubiaozhizuomoban-09" xmlns="http://www.w3.org/2000/svg" width="20" height="20" viewBox="0 0 20 20">
  <defs>
    <style>
      .cls-1 {
        fill: #79b2eb;
      }

      .cls-2 {
        fill: #50a1f0;
      }
    </style>
  </defs>
  <path id="路径_111" data-name="路径 111" class="cls-1" d="M104.8,118.087a43.6,43.6,0,0,1-6.326-.462h-.006a4.119,4.119,0,0,1-3.205-3.205v-.006a43.558,43.558,0,0,1,0-12.652v-.006a4.119,4.119,0,0,1,3.205-3.205h.006a43.558,43.558,0,0,1,12.652,0h.006a4.119,4.119,0,0,1,3.205,3.205v.006a43.559,43.559,0,0,1,0,12.652v.006a4.119,4.119,0,0,1-3.205,3.205h-.006A43.6,43.6,0,0,1,104.8,118.087Zm-6.132-1.765a42.236,42.236,0,0,0,12.263,0,2.818,2.818,0,0,0,2.1-2.1,42.234,42.234,0,0,0,0-12.263,2.818,2.818,0,0,0-2.1-2.1,42.236,42.236,0,0,0-12.263,0,2.818,2.818,0,0,0-2.1,2.1,42.237,42.237,0,0,0,0,12.263A2.819,2.819,0,0,0,98.666,116.323Z" transform="translate(-94.797 -98.088)"/>
  <path id="路径_112" data-name="路径 112" class="cls-2" d="M346.972,479.6h-6.781a.851.851,0,1,1,0-1.7h6.781a.851.851,0,0,1,0,1.7Z" transform="translate(-333.547 -468.816)"/>
  <path id="路径_113" data-name="路径 113" class="cls-2" d="M480.281,342.743a.851.851,0,0,1-.851-.851v-6.781a.851.851,0,0,1,1.7,0v6.781A.851.851,0,0,1,480.281,342.743Z" transform="translate(-470.231 -328.665)"/>
</svg>
