<svg id="lanlvtubiaozhizuomoban-04" xmlns="http://www.w3.org/2000/svg" width="20" height="21.476" viewBox="0 0 20 21.476">
  <defs>
    <style>
      .cls-1 {
        fill: #79b2eb;
      }

      .cls-2 {
        fill: #6cb5ff;
      }

      .cls-3 {
        fill: #50a1f0;
      }

      .cls-4 {
        fill: #fff;
      }
    </style>
  </defs>
  <path id="路径_89" data-name="路径 89" class="cls-1" d="M171.671,194H154.592a.688.688,0,0,1-.692-.685v-.067a.688.688,0,0,1,.692-.685h17.079a.688.688,0,0,1,.692.685v.067A.688.688,0,0,1,171.671,194Zm0,8.439H154.592a.688.688,0,0,1-.692-.685v-.067a.688.688,0,0,1,.692-.685h17.079a.688.688,0,0,1,.692.685v.067A.688.688,0,0,1,171.671,202.435Zm0,7.978H154.592a.688.688,0,0,1-.692-.685v-.067a.688.688,0,0,1,.692-.685h17.079a.688.688,0,0,1,.692.685v.067A.688.688,0,0,1,171.671,210.413Z" transform="translate(-153.436 -190.749)"/>
  <path id="路径_90" data-name="路径 90" class="cls-2" d="M140.508,132.668m-2.608,0a2.608,2.608,0,1,0,2.608-2.608A2.608,2.608,0,0,0,137.9,132.668Z" transform="translate(-137.9 -130.06)"/>
  <path id="路径_91" data-name="路径 91" class="cls-2" d="M713.568,761.3m-2.608,0a2.608,2.608,0,1,0,2.608-2.608A2.608,2.608,0,0,0,710.96,761.3Z" transform="translate(-696.176 -742.43)"/>
  <path id="路径_92" data-name="路径 92" class="cls-3" d="M386.667,419m-3.767,0a3.767,3.767,0,1,0,3.767-3.767A3.767,3.767,0,0,0,382.9,419Z" transform="translate(-376.706 -407.984)"/>
  <path id="路径_93" data-name="路径 93" class="cls-4" d="M182.144,176.354m-1.3,0a1.3,1.3,0,1,0,1.3-1.3A1.3,1.3,0,0,0,180.84,176.354Z" transform="translate(-179.596 -173.746)"/>
  <path id="路径_94" data-name="路径 94" class="cls-4" d="M758.074,807.144m-1.3,0a1.3,1.3,0,1,0,1.3-1.3A1.3,1.3,0,0,0,756.77,807.144Z" transform="translate(-740.659 -788.214)"/>
  <path id="路径_95" data-name="路径 95" class="cls-4" d="M440.073,471.383m-2.173,0a2.173,2.173,0,1,0,2.173-2.173A2.173,2.173,0,0,0,437.9,471.383Z" transform="translate(-430.113 -460.39)"/>
</svg>
