<svg xmlns="http://www.w3.org/2000/svg" width="20" height="20" viewBox="0 0 20 20">
  <defs>
    <style>
      .cls-1 {
        fill: #79b2eb;
      }

      .cls-2 {
        fill: #50a1f0;
      }
    </style>
  </defs>
  <g id="lanlvtubiaozhizuomoban-12" transform="translate(-93.337 -86.598)">
    <path id="路径_116" data-name="路径 116" class="cls-1" d="M103.337,106.6a43.6,43.6,0,0,1-6.326-.462h-.006A4.119,4.119,0,0,1,93.8,102.93v-.006a43.558,43.558,0,0,1,0-12.652v-.006a4.119,4.119,0,0,1,3.205-3.205h.006a43.559,43.559,0,0,1,12.652,0h.006a4.119,4.119,0,0,1,3.205,3.205v.006a43.558,43.558,0,0,1,0,12.652v.006a4.119,4.119,0,0,1-3.205,3.205h-.006A43.564,43.564,0,0,1,103.337,106.6Zm-6.131-1.765a42.236,42.236,0,0,0,12.263,0,2.819,2.819,0,0,0,2.1-2.1,42.251,42.251,0,0,0,0-12.263,2.818,2.818,0,0,0-2.1-2.1,42.235,42.235,0,0,0-12.263,0,2.818,2.818,0,0,0-2.1,2.1,42.234,42.234,0,0,0,0,12.263A2.818,2.818,0,0,0,97.206,104.833Z"/>
    <path id="路径_117" data-name="路径 117" class="cls-2" d="M392.385,279.5l5.084,5.2a.623.623,0,0,0,.895,0l.3-.312a.658.658,0,0,0,0-.915l-5.084-5.2a.623.623,0,0,0-.895,0l-.3.312A.658.658,0,0,0,392.385,279.5Z" transform="translate(-292.017 -187.104)"/>
    <path id="路径_118" data-name="路径 118" class="cls-2" d="M391.7,480.886l.306.306a.634.634,0,0,0,.9,0l5.1-5.1a.634.634,0,0,0,0-.9l-.306-.306a.634.634,0,0,0-.9,0l-5.1,5.1A.634.634,0,0,0,391.7,480.886Z" transform="translate(-291.35 -378.727)"/>
  </g>
</svg>
