<svg id="lanlvtubiaozhizuomoban-05" xmlns="http://www.w3.org/2000/svg" width="20" height="23.324" viewBox="0 0 20 23.324">
  <defs>
    <style>
      .cls-1 {
        fill: #79b2eb;
      }

      .cls-2 {
        fill: #fff;
      }

      .cls-3 {
        fill: #50a1f0;
      }
    </style>
  </defs>
  <path id="路径_96" data-name="路径 96" class="cls-1" d="M310.582,117.638H299.4a2.546,2.546,0,0,1-2.565-2.521V100.2A2.546,2.546,0,0,1,299.4,97.68h11.177a2.546,2.546,0,0,1,2.565,2.521v14.916A2.545,2.545,0,0,1,310.582,117.638ZM299.4,99.222a.988.988,0,0,0-1,.978v14.916a.988.988,0,0,0,1,.978h11.177a.988.988,0,0,0,1-.978V100.2a.988.988,0,0,0-1-.978H299.4Z" transform="translate(-293.147 -97.68)"/>
  <path id="路径_97" data-name="路径 97" class="cls-2" d="M197.347,261.908H186.17a1.78,1.78,0,0,1-1.78-1.78V244.95a1.78,1.78,0,0,1,1.78-1.78h11.177a1.78,1.78,0,0,1,1.78,1.78v15.178A1.78,1.78,0,0,1,197.347,261.908Z" transform="translate(-183.605 -239.368)"/>
  <path id="路径_98" data-name="路径 98" class="cls-1" d="M170.632,235.628H159.455a2.546,2.546,0,0,1-2.565-2.521V218.191a2.546,2.546,0,0,1,2.565-2.521h11.177a2.546,2.546,0,0,1,2.565,2.521v14.916A2.546,2.546,0,0,1,170.632,235.628Zm-11.177-18.415a.988.988,0,0,0-1,.978v14.916a.988.988,0,0,0,1,.978h11.177a.988.988,0,0,0,1-.978V218.19a.988.988,0,0,0-1-.978Z" transform="translate(-156.89 -212.303)"/>
  <path id="路径_99" data-name="路径 99" class="cls-3" d="M287.928,379.039h-7.564a.785.785,0,0,1,0-1.569h7.564a.785.785,0,0,1,0,1.569Zm-2.035,3.088h-5.529a.785.785,0,0,1,0-1.569h5.529a.785.785,0,0,1,0,1.569Zm2.035,3.061h-7.564a.785.785,0,0,1,0-1.569h7.564a.785.785,0,1,1,0,1.569Zm-2.035,3.246h-5.529a.785.785,0,0,1,0-1.569h5.529a.785.785,0,0,1,0,1.569Z" transform="translate(-276.173 -369.706)"/>
</svg>
