<?xml version="1.0" standalone="no"?><!DOCTYPE svg PUBLIC "-//W3C//DTD SVG 1.1//EN" "http://www.w3.org/Graphics/SVG/1.1/DTD/svg11.dtd"><svg t="1600841106232" class="icon" viewBox="0 0 1024 1024" version="1.1" xmlns="http://www.w3.org/2000/svg" p-id="9040" xmlns:xlink="http://www.w3.org/1999/xlink" width="128" height="128"><defs><style type="text/css"></style></defs><path d="M512 768C341.312 606.272 256 478.272 256 384a256 256 0 1 1 512 0c0 94.272-85.312 222.272-256 384z m0-192a192 192 0 1 0 0-384 192 192 0 0 0 0 384z m0-64a128 128 0 1 1 0-256 128 128 0 0 1 0 256z m-192.832 320A3163.2 3163.2 0 0 0 512 1024a3163.2 3163.2 0 0 0 192.832-192H1024v192H0v-192h319.168z" fill="#50a1f0" p-id="9041"></path><path d="M512 960c-256-242.56-384-434.56-384-576a384 384 0 1 1 768 0c0 141.44-128 333.44-384 576zM192 384c0 110.976 105.536 276.16 320 487.04 214.464-210.88 320-376.064 320-487.04A320 320 0 0 0 192 384z m320 128a128 128 0 1 1 0-256 128 128 0 0 1 0 256z" fill="#50a1f0"  fill-opacity=".6" p-id="9042"></path></svg>