<svg xmlns="http://www.w3.org/2000/svg" width="20.558" height="18" viewBox="0 0 20.558 18">
  <defs>
    <style>
      .cls-1 {
        fill: #3296fa;
      }
    </style>
  </defs>
  <path id="cheliangleixing" class="cls-1" d="M9.686,27.218h-.74l-.006,0a.715.715,0,0,1,.4.637l.017,2.529H1.7V27.86a.72.72,0,0,1,.4-.63H1.364a.415.415,0,0,1-.283-.1.357.357,0,0,1-.121-.26V26.5a.385.385,0,0,1,.4-.364h.4v.729h.339V25.3a.771.771,0,0,1,.807-.729H8.156a.77.77,0,0,1,.806.729l-.013,1.548h.333v-.73h.4a.385.385,0,0,1,.4.365v.364a.354.354,0,0,1-.119.261A.412.412,0,0,1,9.686,27.218ZM4.123,30.047H6.946v-.364H4.123Zm0-.729H6.946v-.366H4.123Zm0-.73H6.946v-.364H4.123Zm-1.614,1.1a.387.387,0,0,0,.4.364h.4a.367.367,0,1,0,0-.73h-.4A.386.386,0,0,0,2.51,29.683Zm5.647-4.012a.386.386,0,0,0-.4-.366H3.316a.386.386,0,0,0-.4.366v1.823H8.157Zm0,3.647h-.4a.414.414,0,0,0-.284.1.356.356,0,0,0-.12.261.386.386,0,0,0,.4.364h.4a.367.367,0,1,0,0-.73Zm1.21,1.436a.357.357,0,0,1-.121.26.415.415,0,0,1-.283.1H2.106a.414.414,0,0,1-.283-.1.356.356,0,0,1-.12-.26v-.366H9.368v.366Zm-5.648,1.1a.386.386,0,0,1-.4.366h-.4a.386.386,0,0,1-.4-.366v-.73H3.719Zm4.841,0a.386.386,0,0,1-.4.366h-.4a.386.386,0,0,1-.4-.366v-.73h1.21v.73h0ZM21.518,31.5a.75.75,0,0,1-.776.72H14.054a.749.749,0,0,1-.775-.72V25.3a.748.748,0,0,1,.775-.72h6.687a.749.749,0,0,1,.776.72Zm0,10.353a.749.749,0,0,1-.776.72H14.054a.749.749,0,0,1-.775-.72V35.648a.748.748,0,0,1,.775-.719h6.687a.749.749,0,0,1,.776.719Zm-11.9,0a.75.75,0,0,1-.775.72H2.155a.75.75,0,0,1-.776-.72V35.648a.75.75,0,0,1,.776-.719H8.843a.749.749,0,0,1,.775.719v6.208Z" transform="translate(-0.96 -24.576)"/>
</svg>
