<svg xmlns="http://www.w3.org/2000/svg" width="13.562" height="13.562" viewBox="0 0 13.562 13.562">
  <defs>
    <style>
      .cls-1 {
        fill: #faad14;
      }
    </style>
  </defs>
  <path id="jingshi" class="cls-1" d="M6.781,0a6.781,6.781,0,1,0,6.781,6.781A6.783,6.783,0,0,0,6.781,0ZM6.1,9.493a.675.675,0,0,1,.671-.677h.014a.679.679,0,0,1,0,1.356H6.774A.675.675,0,0,1,6.1,9.493Zm0-2.719v-2.7a.687.687,0,0,1,.331-.616.672.672,0,0,1,.693,0,.687.687,0,0,1,.331.616v2.7a.687.687,0,0,1-.331.616.672.672,0,0,1-.693,0A.687.687,0,0,1,6.1,6.774Z"/>
</svg>
