<svg xmlns="http://www.w3.org/2000/svg" width="20" height="21.017" viewBox="0 0 20 21.017">
  <defs>
    <style>
      .cls-1 {
        fill: #6cb5ff;
      }
    </style>
  </defs>
  <path id="mima" class="cls-1" d="M92.736,79.886c-.425,0-.508-.426-.508-.847V77c0-.422.084-.932.508-.932s.508.51.508.932v2.034c0,.422-.084.847-.508.847Zm7.692,4.576H85.044a2.3,2.3,0,0,1-2.308-2.288v-8.39a2.288,2.288,0,0,1,2.373-2.2h15.254a2.288,2.288,0,0,1,2.373,2.2v8.39a2.3,2.3,0,0,1-2.308,2.288ZM85.448,72.6c-1.009,0-1.639.518-1.695,1.356v8.136a2.164,2.164,0,0,0,1.356,1.356h15.254a2.162,2.162,0,0,0,1.356-1.356V73.953c0-.921-.4-1.356-1.356-1.356Zm12.673-.254c-.425,0-.469,0-.469-.424V69.208c0-2.592-2.887-4.746-5.085-4.746a4.849,4.849,0,0,0-4.746,4.746v2.373c0,.421-.045.763-.469.763S86.8,72,86.8,71.581V69.208a5.5,5.5,0,0,1,5.763-5.763,5.959,5.959,0,0,1,6.1,5.763V71.92c0,.421-.122.424-.548.424Zm0,0" transform="translate(-82.736 -63.445)"/>
</svg>
