<svg xmlns="http://www.w3.org/2000/svg" width="20" height="21.97" viewBox="0 0 20 21.97">
  <defs>
    <style>
      .cls-1 {
        fill: #6cb5ff;
      }
    </style>
  </defs>
  <path id="order" class="cls-1" d="M144.654,92.065h-9.337a.437.437,0,1,0,0,.873h9.337a.437.437,0,1,0,0-.873Zm0,2.909h-9.337a.437.437,0,1,0,0,.873h9.337a.437.437,0,1,0,0-.873Zm0,2.9h-9.337a.436.436,0,1,0,0,.873h9.337a.436.436,0,1,0,0-.873Zm-11.2,0h-.54a.436.436,0,1,0,0,.873h.54a.436.436,0,1,0,0-.873Zm11.2,2.9h-9.337a.436.436,0,1,0,0,.872h9.337a.436.436,0,1,0,0-.872Zm-11.2,0h-.54a.436.436,0,1,0,0,.872h.54a.436.436,0,1,0,0-.872Zm0-5.809h-.54a.437.437,0,1,0,0,.873h.54a.437.437,0,1,0,0-.873Zm0-2.909h-.54a.436.436,0,1,0,0,.872h.54a.436.436,0,1,0,0-.872Zm14.3-6.948H130.355a1.3,1.3,0,0,0-1.3,1.287v19.4a1.3,1.3,0,0,0,1.3,1.286h17.394a1.3,1.3,0,0,0,1.3-1.286v-19.4A1.3,1.3,0,0,0,147.749,85.105Zm.368,20.684a.366.366,0,0,1-.368.363H130.355a.365.365,0,0,1-.368-.363v-19.4a.365.365,0,0,1,.368-.363h17.394a.365.365,0,0,1,.368.363v19.4ZM136.767,89.2h4.472a.607.607,0,1,0,0-1.213h-4.472a.607.607,0,1,0,0,1.213Z" transform="translate(-129.052 -85.105)"/>
</svg>
