<?xml version="1.0" standalone="no"?><!DOCTYPE svg PUBLIC "-//W3C//DTD SVG 1.1//EN" "http://www.w3.org/Graphics/SVG/1.1/DTD/svg11.dtd"><svg t="1600840582004" class="icon" viewBox="0 0 1024 1024" version="1.1" xmlns="http://www.w3.org/2000/svg" p-id="20924" xmlns:xlink="http://www.w3.org/1999/xlink" width="200" height="200"><defs><style type="text/css"></style></defs><path d="M509.2 158.2c-108.8 0-197.2 88.5-197.2 197.2 0 77.6 45 144.8 110.3 177-45.7 14-87.5 39-122.3 73.7-55.8 56-103 146.7-103 225.7 0 9.1 7.4 16.4 16.4 16.4 9.1 0 16.4-7.4 16.4-16.4 0-70.2 43.8-152.7 93.5-202.4 47.9-47.9 111-75 178.4-76.9 2.5 0.1 5 0.2 7.5 0.2 108.8 0 197.2-88.5 197.2-197.2 0.1-108.8-88.4-197.3-197.2-197.3z m2.8 361.6c-0.9-0.2-1.8-0.2-2.8-0.2-2.5 0-5 0-7.5 0.1-87.2-3.9-156.9-76.1-156.9-164.2 0-90.6 73.7-164.4 164.4-164.4 90.6 0 164.4 73.7 164.4 164.4 0 89.7-72.2 162.8-161.6 164.3z" fill="#fff" p-id="20925"></path><path d="M809.1 865.8H808c-9.6-0.6-17-8.9-16.4-18.5 8-131.6-102.6-226.7-103.8-227.7-7.4-6.2-8.3-17.3-2.1-24.7 6.2-7.4 17.3-8.3 24.7-2.1 1.3 1.1 31.9 27.1 61.5 71.5 39.5 59.2 58.4 123.2 54.6 185-0.5 9.3-8.2 16.5-17.4 16.5z" fill="#fff" p-id="20926"></path></svg>