<svg id="qiye" xmlns="http://www.w3.org/2000/svg" width="20" height="20" viewBox="0 0 20 20">
  <defs>
    <style>
      .cls-1 {
        fill: #6cb5ff;
      }
    </style>
  </defs>
  <path id="路径_125" data-name="路径 125" class="cls-1" d="M19.563,28.937H17.389V17.582a1.334,1.334,0,0,0-.846-1.245l-5.216-2a1.286,1.286,0,0,0-.892-.008v-3.18a1.338,1.338,0,0,0-.56-1.093,1.282,1.282,0,0,0-1.2-.151l-5.218,2a1.336,1.336,0,0,0-.846,1.245V28.937H.436a.444.444,0,0,0,0,.888H19.564a.444.444,0,0,0,0-.888ZM3.478,13.15a.444.444,0,0,1,.281-.414l5.218-2a.423.423,0,0,1,.4.05.44.44,0,0,1,.187.364V28.937H3.478Zm6.956,15.787V15.589a.44.44,0,0,1,.187-.364.418.418,0,0,1,.4-.05l5.216,2a.444.444,0,0,1,.281.414V28.938H10.435Z" transform="translate(0 -9.825)"/>
  <path id="路径_126" data-name="路径 126" class="cls-1" d="M239.141,346.3h-2.777a.549.549,0,0,0,0,1.085h2.777a.549.549,0,0,0,0-1.085Zm7.4,3.249h-2.777a.549.549,0,0,0,0,1.085h2.777a.549.549,0,0,0,0-1.085Zm0,3.246h-2.777a.549.549,0,0,0,0,1.085h2.777a.549.549,0,0,0,0-1.085Zm-7.4,0h-2.777a.549.549,0,0,0,0,1.085h2.777a.549.549,0,0,0,0-1.085Z" transform="translate(-231.617 -340.267)"/>
</svg>
