<svg xmlns="http://www.w3.org/2000/svg" width="14" height="14" viewBox="0 0 14 14">
  <defs>
    <style>
     
    </style>
  </defs>
  <path id="rili-5" class="cls-1" d="M12.727,82.968H10.182V81.833c0-.227-.127-.378-.318-.378s-.318.151-.318.378v1.135H4.455V81.833c0-.227-.127-.378-.318-.378s-.318.151-.318.378v1.135H1.273A1.413,1.413,0,0,0,0,84.482v9.459a1.413,1.413,0,0,0,1.273,1.514H12.727A1.413,1.413,0,0,0,14,93.941V84.482a1.413,1.413,0,0,0-1.273-1.514Zm-8.909,8.7H3.182c-.191,0-.318-.151-.318-.378s.127-.378.318-.378h.636c.191,0,.318.151.318.378S4.009,91.671,3.818,91.671Zm0-3.027H3.182c-.191,0-.318-.151-.318-.378s.127-.378.318-.378h.636c.191,0,.318.151.318.378S4.009,88.644,3.818,88.644Zm3.5,3.027H6.682c-.191,0-.318-.151-.318-.378s.127-.378.318-.378h.636c.191,0,.318.151.318.378S7.509,91.671,7.318,91.671Zm0-3.027H6.682c-.191,0-.318-.151-.318-.378s.127-.378.318-.378h.636c.191,0,.318.151.318.378S7.509,88.644,7.318,88.644Zm3.5,3.027h-.636c-.191,0-.318-.151-.318-.378s.127-.378.318-.378h.636c.191,0,.318.151.318.378S11.009,91.671,10.818,91.671Zm0-3.027h-.636c-.191,0-.318-.151-.318-.378s.127-.378.318-.378h.636c.191,0,.318.151.318.378S11.009,88.644,10.818,88.644Z" transform="translate(0 -81.455)"/>
</svg>
