<svg id="lanlvtubiaozhizuomoban-08" xmlns="http://www.w3.org/2000/svg" width="20" height="21.177" viewBox="0 0 20 21.177">
  <defs>
    <style>
      .cls-1 {
        fill: #79b2eb;
      }

      .cls-2 {
        fill: #50a1f0;
      }
    </style>
  </defs>
  <path id="路径_102" data-name="路径 102" class="cls-1" d="M118.91,118.637a41.183,41.183,0,0,1-6.772-.566h-.005a3.511,3.511,0,0,1-2.674-2.721v-.005a48.8,48.8,0,0,1,0-14.591v-.005a3.51,3.51,0,0,1,2.674-2.721h.005a40.793,40.793,0,0,1,13.544,0h.005a3.51,3.51,0,0,1,2.674,2.721v.005a48.8,48.8,0,0,1,0,14.591v.005a3.511,3.511,0,0,1-2.674,2.721h-.005A41.21,41.21,0,0,1,118.91,118.637Zm-6.542-1.922a39.6,39.6,0,0,0,13.084,0A2.133,2.133,0,0,0,127,115.137a47.654,47.654,0,0,0,0-14.177,2.134,2.134,0,0,0-1.551-1.578,39.594,39.594,0,0,0-13.084,0,2.133,2.133,0,0,0-1.551,1.579,47.65,47.65,0,0,0,0,14.176A2.133,2.133,0,0,0,112.368,116.715Z" transform="translate(-108.91 -97.46)"/>
  <path id="路径_103" data-name="路径 103" class="cls-1" d="M173,269.85h17v1.375H173Z" transform="translate(-171.398 -265.541)"/>
  <path id="路径_104" data-name="路径 104" class="cls-1" d="M323.329,233.15h-.064a.656.656,0,0,1-.656-.656v-1.939a.656.656,0,0,1,.656-.656h.064a.656.656,0,0,1,.656.656v1.939A.655.655,0,0,1,323.329,233.15Zm8.249,0h-.064a.656.656,0,0,1-.656-.656v-1.939a.656.656,0,0,1,.656-.656h.064a.656.656,0,0,1,.656.656v1.939A.656.656,0,0,1,331.579,233.15Z" transform="translate(-317.27 -226.59)"/>
  <path id="路径_105" data-name="路径 105" class="cls-2" d="M281.951,450.921m-1.561,0a1.561,1.561,0,1,0,1.561-1.561A1.561,1.561,0,0,0,280.39,450.921Z" transform="translate(-276.104 -440.565)"/>
  <path id="路径_106" data-name="路径 106" class="cls-2" d="M451.441,450.921m-1.561,0a1.561,1.561,0,1,0,1.561-1.561A1.561,1.561,0,0,0,449.88,450.921Z" transform="translate(-441.358 -440.565)"/>
  <path id="路径_107" data-name="路径 107" class="cls-2" d="M624.291,450.921m-1.561,0a1.561,1.561,0,1,0,1.561-1.561A1.561,1.561,0,0,0,622.73,450.921Z" transform="translate(-609.888 -440.565)"/>
  <path id="路径_108" data-name="路径 108" class="cls-2" d="M281.951,639.971m-1.561,0a1.561,1.561,0,1,0,1.561-1.561A1.561,1.561,0,0,0,280.39,639.971Z" transform="translate(-276.104 -624.89)"/>
  <path id="路径_109" data-name="路径 109" class="cls-2" d="M451.441,639.971m-1.561,0a1.561,1.561,0,1,0,1.561-1.561A1.561,1.561,0,0,0,449.88,639.971Z" transform="translate(-441.358 -624.89)"/>
  <path id="路径_110" data-name="路径 110" class="cls-2" d="M624.291,639.971m-1.561,0a1.561,1.561,0,1,0,1.561-1.561A1.561,1.561,0,0,0,622.73,639.971Z" transform="translate(-609.888 -624.89)"/>
</svg>
