<?xml version="1.0" standalone="no"?><!DOCTYPE svg PUBLIC "-//W3C//DTD SVG 1.1//EN" "http://www.w3.org/Graphics/SVG/1.1/DTD/svg11.dtd"><svg class="icon" width="200px" height="200.00px" viewBox="0 0 1024 1024" version="1.1" xmlns="http://www.w3.org/2000/svg"><path fill="#333333" d="M684.8 172.8c-32-51.2-89.6-89.6-160-89.6-64 0-121.6 32-153.6 83.2C192 198.4 64 352 64 531.2v38.4c0 204.8 166.4 371.2 371.2 371.2h153.6c204.8 0 371.2-166.4 371.2-371.2v-38.4c0-172.8-121.6-313.6-275.2-358.4z m-160-38.4c76.8 0 134.4 57.6 134.4 134.4 0 12.8 0 25.6-6.4 38.4h-256c-6.4-6.4-6.4-19.2-6.4-38.4 0-70.4 57.6-134.4 134.4-134.4z m384 435.2c0 172.8-140.8 320-320 320H435.2c-172.8 0-320-140.8-320-320v-38.4c0-140.8 96-262.4 224-300.8 0 12.8-6.4 25.6-6.4 38.4 0 12.8 0 25.6 6.4 38.4h-25.6c-12.8 6.4-25.6 12.8-25.6 25.6s12.8 25.6 25.6 25.6h416c12.8 0 25.6-12.8 25.6-25.6s-12.8-25.6-25.6-25.6H704c0-12.8 6.4-25.6 6.4-38.4 0-12.8 0-25.6-6.4-38.4 115.2 44.8 198.4 160 198.4 294.4l6.4 44.8z m-300.8 19.2c12.8 0 25.6-12.8 25.6-25.6s-12.8-25.6-25.6-25.6h-51.2l51.2-51.2c12.8-12.8 12.8-25.6 0-32-6.4-6.4-25.6-6.4-32 0l-64 64-64-64c-6.4-6.4-25.6-6.4-32 0-12.8 12.8-12.8 25.6 0 32l51.2 51.2h-57.6c-12.8 0-25.6 12.8-25.6 25.6s12.8 25.6 25.6 25.6h76.8v51.2H409.6c-12.8 0-25.6 12.8-25.6 25.6s12.8 25.6 25.6 25.6h76.8v64c0 12.8 12.8 25.6 25.6 25.6s25.6-12.8 25.6-25.6v-64h76.8c12.8 0 25.6-12.8 25.6-25.6s-12.8-25.6-25.6-25.6H537.6v-51.2h70.4z"  /></svg>