<svg xmlns="http://www.w3.org/2000/svg" width="20" height="20.115" viewBox="0 0 20 20.115">
  <defs>
    <style>
      .cls-1 {
        fill: #79b2eb;
      }

      .cls-2 {
        fill: #50a0ef;
      }
    </style>
  </defs>
  <g id="shouru" transform="translate(-66.536 -63.976)">
    <path id="路径_172" data-name="路径 172" class="cls-1" d="M76.507,85.366a10.043,10.043,0,0,1,0-20.086.748.748,0,1,1,.057,1.494h-.057a8.534,8.534,0,1,0,8.534,8.534.743.743,0,0,1,.776-.718.73.73,0,0,1,.718.718A10.044,10.044,0,0,1,76.507,85.366Z" transform="translate(0 -1.275)"/>
    <path id="路径_173" data-name="路径 173" class="cls-2" d="M347.29,414.934h-6.034a.748.748,0,0,1-.057-1.494h6.092a.743.743,0,0,1,.718.776A.694.694,0,0,1,347.29,414.934Zm0,2.931h-6.034a.743.743,0,0,1-.718-.776.73.73,0,0,1,.718-.718h6.034a.743.743,0,0,1,.718.776A.729.729,0,0,1,347.29,417.865Z" transform="translate(-267.795 -341.619)"/>
    <path id="路径_174" data-name="路径 174" class="cls-2" d="M478.187,418.307a.761.761,0,0,1-.747-.747v-6.034a.743.743,0,0,1,.776-.718.73.73,0,0,1,.718.718v6.034A.761.761,0,0,1,478.187,418.307Z" transform="translate(-401.68 -339.043)"/>
    <path id="路径_175" data-name="路径 175" class="cls-2" d="M366.931,283.169a.785.785,0,0,1-.546-.23l-2.5-2.471a.753.753,0,0,1,1.006-1.121l.057.057,2.471,2.471a.763.763,0,0,1,0,1.063A.658.658,0,0,1,366.931,283.169Z" transform="translate(-290.423 -210.342)"/>
    <path id="路径_176" data-name="路径 176" class="cls-2" d="M477.561,72.827a.785.785,0,0,1-.546-.23.763.763,0,0,1,0-1.063l2.471-2.471a.794.794,0,0,1,1.063.057.712.712,0,0,1,0,.977l-2.471,2.5A.773.773,0,0,1,477.561,72.827Zm4.655-5.057,2.471-2.5.029-.029a.752.752,0,1,0-1.092-1.034l-2.471,2.5a.785.785,0,0,0-.23.546.761.761,0,0,0,.747.747A.692.692,0,0,0,482.216,67.77Z" transform="translate(-401.054)"/>
    <path id="路径_177" data-name="路径 177" class="cls-2" d="M668.867,180.918a.785.785,0,0,0,.546-.23.763.763,0,0,0,0-1.063l-2.471-2.471a.712.712,0,0,0-.977,0,.737.737,0,0,0-.057,1.063l2.471,2.5A.644.644,0,0,0,668.867,180.918Z" transform="translate(-585.722 -110.448)"/>
    <path id="路径_178" data-name="路径 178" class="cls-2" d="M672.611,178.134a.73.73,0,0,0,.718-.718.762.762,0,0,0-.718-.776h-5.086a.748.748,0,1,0,.057,1.494Z" transform="translate(-586.794 -110.135)"/>
  </g>
</svg>
