<svg id="shoujihao" xmlns="http://www.w3.org/2000/svg" width="18.241" height="21.886" viewBox="0 0 18.241 21.886">
  <defs>
    <style>
      .cls-1 {
        fill: #6cb5ff;
      }
    </style>
  </defs>
  <path id="路径_129" data-name="路径 129" class="cls-1" d="M471.7,857.021m-1.02,0A1.02,1.02,0,1,0,471.7,856,1.02,1.02,0,0,0,470.683,857.021Z" transform="translate(-462.566 -838.2)"/>
  <path id="路径_130" data-name="路径 130" class="cls-1" d="M167.77,21.886H155.09a2.592,2.592,0,0,1-2.78-2.344V2.344A2.592,2.592,0,0,1,155.09,0h12.68a2.592,2.592,0,0,1,2.78,2.344v17.2a2.593,2.593,0,0,1-2.781,2.343ZM155.09.873a1.626,1.626,0,0,0-1.745,1.471v17.2a1.626,1.626,0,0,0,1.745,1.471h12.68a1.626,1.626,0,0,0,1.745-1.471V2.344A1.626,1.626,0,0,0,167.771.873Z" transform="translate(-152.31)"/>
  <path id="路径_131" data-name="路径 131" class="cls-1" d="M171.405,767.172h17.344v.993H171.405Z" transform="translate(-170.941 -750.869)"/>
</svg>
