<svg xmlns="http://www.w3.org/2000/svg" width="13" height="13" viewBox="0 0 13 13">
  <defs>
    <style>
      .cls-1 {
        fill: #243154;
      }
    </style>
  </defs>
  <g id="shuaxin" transform="translate(-32 -32)">
    <path id="路径_138" data-name="路径 138" class="cls-1" d="M42.141,43.787a.433.433,0,0,1-.26-.78A5.634,5.634,0,0,0,38.5,32.867a.433.433,0,1,1,0-.867,6.5,6.5,0,0,1,3.9,11.7A.431.431,0,0,1,42.141,43.787ZM38.5,45a6.5,6.5,0,0,1-4.55-11.142.434.434,0,0,1,.608.619A5.633,5.633,0,0,0,38.5,44.133a.433.433,0,1,1,0,.867Z"/>
    <path id="路径_139" data-name="路径 139" class="cls-1" d="M393.018,34.719a.4.4,0,0,1-.339-.194l-1.137-1.819a.452.452,0,0,1,.113-.6.392.392,0,0,1,.564.121l1.139,1.82a.452.452,0,0,1-.113.6A.394.394,0,0,1,393.018,34.719Zm-1.139,10.313a.4.4,0,0,1-.339-.194l-1.139-1.82a.452.452,0,0,1,.113-.6.392.392,0,0,1,.564.121l1.139,1.82a.452.452,0,0,1-.113.6.379.379,0,0,1-.225.073Z" transform="translate(-353.379 -0.032)"/>
  </g>
</svg>
