<svg xmlns="http://www.w3.org/2000/svg" width="73.286" height="73.286" viewBox="0 0 73.286 73.286">
  <defs>
    <style>
      .cls-1 {
        fill: #20b759;
      }

      .cls-2 {
        fill: #fff;
      }
    </style>
  </defs>
  <g id="wancheng" transform="translate(0 0)">
    <path id="路径_80" data-name="路径 80" class="cls-1" d="M100.637,100.736m-36.643,0a36.643,36.643,0,1,0,36.643-36.643A36.643,36.643,0,0,0,63.994,100.736Z" transform="translate(-63.994 -64.094)"/>
    <path id="路径_81" data-name="路径 81" class="cls-2" d="M256.168,485.777l-13.88-13.88a2.452,2.452,0,1,0-3.468,3.468l13.88,13.88a2.452,2.452,0,0,0,3.468-3.468Z" transform="translate(-223.86 -437.879)"/>
    <path id="路径_82" data-name="路径 82" class="cls-2" d="M445.016,324.211a2.453,2.453,0,0,0-3.468,0L416.1,349.665a2.452,2.452,0,1,0,3.468,3.468l25.445-25.446A2.448,2.448,0,0,0,445.016,324.211Z" transform="translate(-386.641 -302.275)"/>
  </g>
</svg>
