<svg xmlns="http://www.w3.org/2000/svg" width="40" height="40.003" viewBox="0 0 40 40.003">
  <defs>
    <style>
      .cls-1 {
        fill: #333;
      }
    </style>
  </defs>
  <path id="xiugaitouxiang" class="cls-1" d="M29.02,3.551a12.867,12.867,0,0,0-17.749,0,11.829,11.829,0,0,0,0,17.144,12.385,12.385,0,0,0,2.81,2.043A20.735,20.735,0,0,0,6.848,26.7,19.491,19.491,0,0,0,.075,38.612a1.215,1.215,0,0,0,1.06,1.375,1.245,1.245,0,0,0,1.423-1.02A17.713,17.713,0,0,1,20.144,24.243,12.7,12.7,0,0,0,29.02,20.7a11.829,11.829,0,0,0,0-17.144ZM20.144,21.825a9.889,9.889,0,0,1-10.041-9.7,9.886,9.886,0,0,1,10.041-9.7,9.887,9.887,0,0,1,10.044,9.7A9.891,9.891,0,0,1,20.144,21.825ZM40.054,38.61a18.98,18.98,0,0,0-1.878-5.946,19.467,19.467,0,0,0-3.62-4.956,1.288,1.288,0,0,0-1.778-.025,1.185,1.185,0,0,0-.025,1.713,16.587,16.587,0,0,1,4.8,9.541,1.3,1.3,0,0,0,1.413,1.038,1.225,1.225,0,0,0,1.085-1.365Zm0,0" transform="translate(-0.063 0)"/>
</svg>
