<svg xmlns="http://www.w3.org/2000/svg" width="16" height="16" viewBox="0 0 16 16">
  <defs>
    <style>
      .cls-1 {
        fill: #faad14;
      }
    </style>
  </defs>
  <path id="jingshi" class="cls-1" d="M8,0a8,8,0,1,0,8,8A8,8,0,0,0,8,0ZM7.2,11.2a.8.8,0,0,1,.792-.8h.017a.8.8,0,0,1,0,1.6H7.992a.8.8,0,0,1-.792-.8Zm0-3.208V4.809a.811.811,0,0,1,.391-.726.793.793,0,0,1,.818,0,.811.811,0,0,1,.391.726V7.992a.811.811,0,0,1-.391.726.793.793,0,0,1-.818,0A.811.811,0,0,1,7.2,7.992Z"/>
</svg>
