<svg id="wodeshouru" xmlns="http://www.w3.org/2000/svg" width="20" height="21.653" viewBox="0 0 20 21.653">
  <defs>
    <style>
      .cls-1 {
        fill: #6cb5ff;
      }
    </style>
  </defs>
  <path id="路径_132" data-name="路径 132" class="cls-1" d="M56.545,226.821c-4.7,0-10,0-10-6.512,0-5.97,4.5-10.854,10-10.854s10,4.884,10,10.854c0,6.512-5.3,6.512-10,6.512Zm0-16.281c-4.95,0-9,4.4-9,9.769,0,5.047,3.55,5.427,9,5.427s9-.38,9-5.427C65.545,214.936,61.5,210.54,56.545,210.54Z" transform="translate(-46.545 -205.168)"/>
  <path id="路径_133" data-name="路径 133" class="cls-1" d="M290.128,39.262l-.884-.34.745-3.113c0-.057,0-.113-.047-.113,0,0-.047-.057-.14,0l-.838.4a.942.942,0,0,1-1.163-.283l-1.163-1.415a.123.123,0,0,0-.186,0l-1.163,1.415a.879.879,0,0,1-1.163.283l-.838-.4c-.093-.057-.14,0-.14,0-.047.057-.047.057-.047.113l.745,3.113-.884.34-.745-3.113a1.6,1.6,0,0,1,.279-1.3.872.872,0,0,1,1.117-.226l.838.4c.047.057.093.057.14-.057l1.163-1.415a.917.917,0,0,1,1.489,0l1.163,1.415a.153.153,0,0,0,.14.057l.838-.4a.946.946,0,0,1,1.117.226,1.511,1.511,0,0,1,.372,1.358Zm-3.35,7.244-3.118-3.792.651-.792,2.466,3,2.466-3,.651.792Z" transform="translate(-276.81 -33.164)"/>
  <path id="路径_134" data-name="路径 134" class="cls-1" d="M325.818,535.273h9.055V536.4h-9.055Z" transform="translate(-320.346 -523.49)"/>
  <path id="路径_135" data-name="路径 135" class="cls-1" d="M488.727,535.273h1.132v6.791h-1.132Z" transform="translate(-479.293 -523.645)"/>
  <path id="路径_136" data-name="路径 136" class="cls-1" d="M325.818,674.909h9.055v1.132h-9.055Z" transform="translate(-320.346 -659.849)"/>
</svg>
