<?xml version="1.0" standalone="no"?><!DOCTYPE svg PUBLIC "-//W3C//DTD SVG 1.1//EN" "http://www.w3.org/Graphics/SVG/1.1/DTD/svg11.dtd"><svg class="icon" width="200px" height="200.00px" viewBox="0 0 1024 1024" version="1.1" xmlns="http://www.w3.org/2000/svg"><path fill="#333333" d="M932.693333 372.053333h-83.2c-3.84 0-7.68 1.28-10.666666 2.986667l-37.546667-158.72C789.333333 149.333333 744.106667 117.333333 688.213333 117.333333H336.213333C272.64 117.333333 233.813333 160.426667 223.573333 216.32l-37.546666 159.146667c-3.413333-2.133333-7.253333-3.413333-11.52-3.413334h-83.2c-12.8 0-23.04 10.666667-23.04 24.32v20.906667c0 13.226667 10.24 23.893333 23.04 23.893333l31.573333 5.546667c-9.813333 20.053333-15.786667 43.52-15.786667 70.4l-11.52 138.666667c0 3.84 0.426667 8.106667 0.853334 12.373333-0.426667 2.56-0.853333 5.12-0.853334 7.68v187.733333c0 23.893333 18.346667 43.093333 41.386667 43.093334h63.146667c22.613333 0 41.386667-19.2 41.386666-43.093334v-74.24h542.293334v74.24c0 23.893333 18.346667 43.093333 41.386666 43.093334h63.146667c22.613333 0 41.386667-19.2 41.386667-43.093334v-187.733333c0-2.56-0.426667-5.12-0.853334-7.68 0.426667-4.266667 0.853333-8.106667 0.853334-12.373333l-11.52-138.666667c0-26.88-5.546667-50.346667-15.786667-70.4l30.72-5.546667c12.8 0 23.04-10.666667 23.04-23.893333v-20.906667c-0.426667-13.653333-10.666667-24.32-23.466667-24.32z m-681.386666-24.746666l27.733333-117.333334 0.426667-1.706666c2.56-15.36 8.96-18.346667 17.92-30.293334h430.933333c8.96 12.373333 14.933333 15.36 17.493333 29.866667l28.16 119.466667 10.24 42.666666c-2.133333 31.146667-38.4 55.466667-68.266666 55.466667H309.333333c-29.866667 0-65.706667-24.746667-68.266666-55.466667l10.24-42.666666zM270.933333 710.4c-34.56 0-62.72-29.013333-62.72-65.28 0-35.84 28.16-65.28 62.72-65.28s62.72 29.013333 62.72 65.28c-0.426667 35.84-28.16 65.28-62.72 65.28z m349.013334-48.213333c0 10.666667-8.533333 19.2-18.773334 19.2H425.813333c-10.24 0-18.773333-8.533333-18.773333-19.2v-54.613334c0-10.666667 8.533333-19.2 18.773333-19.2H601.6c10.24 0 18.773333 8.533333 18.773333 19.2v54.613334z m133.973333 48.213333c-34.56 0-62.72-29.013333-62.72-65.28 0-35.84 28.16-65.28 62.72-65.28s62.72 29.013333 62.72 65.28c0 35.84-28.16 65.28-62.72 65.28z m0 0"  /></svg>