<svg xmlns="http://www.w3.org/2000/svg" width="64.996" height="65" viewBox="0 0 64.996 65">
  <defs>
    <style>
      .cls-1 {
        fill: #fff;
      }
    </style>
  </defs>
  <path id="xiugaitouxiang" class="cls-1" d="M47.116,5.769a20.907,20.907,0,0,0-28.841,0,19.22,19.22,0,0,0,0,27.858,20.124,20.124,0,0,0,4.566,3.319A33.692,33.692,0,0,0,11.088,43.39,31.67,31.67,0,0,0,.082,62.74,1.974,1.974,0,0,0,1.8,64.975a2.023,2.023,0,0,0,2.312-1.658C6.18,49.687,18.47,39.392,32.693,39.392a20.63,20.63,0,0,0,14.422-5.765,19.22,19.22,0,0,0,0-27.858ZM32.693,35.463c-8.991,0-16.316-7.073-16.316-15.759S23.7,3.941,32.693,3.941,49.013,11.01,49.013,19.7C49.013,28.382,41.692,35.463,32.693,35.463ZM65.044,62.736a30.84,30.84,0,0,0-3.051-9.661,31.632,31.632,0,0,0-5.883-8.052,2.092,2.092,0,0,0-2.889-.041,1.926,1.926,0,0,0-.041,2.783,26.952,26.952,0,0,1,7.8,15.5,2.1,2.1,0,0,0,2.3,1.686,1.991,1.991,0,0,0,1.763-2.218Zm0,0" transform="translate(-0.063 0)"/>
</svg>
