<svg xmlns="http://www.w3.org/2000/svg" width="20" height="19.978" viewBox="0 0 20 19.978">
  <defs>
    <style>
      .cls-1 {
        fill: #79b2eb;
      }

      .cls-2 {
        fill: #50a0ef;
      }
    </style>
  </defs>
  <g id="yingyeshouru" transform="translate(-127.559 -128.078)">
    <path id="路径_179" data-name="路径 179" class="cls-1" d="M137.56,128.078a9.989,9.989,0,1,0,10,9.989A10,10,0,0,0,137.56,128.078Zm0,18.8a8.808,8.808,0,1,1,8.817-8.808A8.817,8.817,0,0,1,137.56,146.874Z" transform="translate(0)"/>
    <path id="路径_180" data-name="路径 180" class="cls-2" d="M320.136,296.566a10.817,10.817,0,0,1-2.279.228c-2.262,0-4.107-.606-4.107-1.346a.483.483,0,0,1,.027-.134h-.027v-.859a7.818,7.818,0,0,0,4.107.972,10.762,10.762,0,0,0,1.608-.118,3.488,3.488,0,0,1-.025-.38c0-.141.006-.662.022-.8a11.659,11.659,0,0,1-1.6.107c-2.262,0-4.107-.606-4.107-1.346a.483.483,0,0,1,.027-.135h-.027V291.9a7.819,7.819,0,0,0,4.107.972,10.044,10.044,0,0,0,2.517-.3,3.371,3.371,0,0,1,2.4-1.047V288.56a.429.429,0,0,0-.022-.136.919.919,0,0,0,.022-.2c0-1.158-2.195-2.087-4.915-2.087s-4.915.929-4.915,2.087a.917.917,0,0,0,.022.2.421.421,0,0,0-.022.136v7.27c0,1.185,2.195,2.154,4.915,2.154a9.649,9.649,0,0,0,2.9-.415c-.231-.18-.44-.77-.618-1Zm-2.279-9.553c2.141,0,3.887.548,3.887,1.211s-1.746,1.211-3.887,1.211-3.887-.548-3.887-1.211S315.716,287.013,317.857,287.013ZM313.97,290.2v-.76a8.962,8.962,0,0,0,7.775,0v.76h-.026a.455.455,0,0,1,.025.127c0,.7-1.746,1.274-3.887,1.274s-3.887-.573-3.887-1.274A.456.456,0,0,1,314,290.2Z" transform="translate(-180.614 -153.993)"/>
    <path id="路径_181" data-name="路径 181" class="cls-2" d="M600.1,527.42l-1,.014-.015-1.823-1.81.015-.014-.995,1.81-.016-.015-1.777.994-.014.018,1.777,1.787-.014.013.994-1.789.017Zm0,0" transform="translate(-457.615 -384.585)"/>
  </g>
</svg>
