<svg id="lanlvtubiaozhizuomoban-03" xmlns="http://www.w3.org/2000/svg" width="20" height="22.734" viewBox="0 0 20 22.734">
  <defs>
    <style>
      .cls-1 {
        fill: #3296fa;
      }

      .cls-2 {
        fill: #3296fa;
      }
    </style>
  </defs>
  <path id="路径_86" data-name="路径 86" class="cls-1" d="M145.38,94.081a4.39,4.39,0,0,1-1.992-.455l-.008,0a31.97,31.97,0,0,1-7.292-5.43l-.007-.008a2.521,2.521,0,0,1,0-3.489l.007-.008a31.957,31.957,0,0,1,7.292-5.43l.008,0a4.592,4.592,0,0,1,3.984,0l.008,0a31.964,31.964,0,0,1,7.292,5.43l.007.008a2.521,2.521,0,0,1,0,3.489l-.007.008a31.956,31.956,0,0,1-7.292,5.43l-.008,0A4.39,4.39,0,0,1,145.38,94.081Zm-1.329-1.768a3.165,3.165,0,0,0,2.659,0,30.368,30.368,0,0,0,6.917-5.146,1.036,1.036,0,0,0,0-1.454,30.361,30.361,0,0,0-6.918-5.146,3.166,3.166,0,0,0-2.658,0,30.364,30.364,0,0,0-6.918,5.146,1.037,1.037,0,0,0,0,1.454A30.36,30.36,0,0,0,144.051,92.313Z" transform="translate(-135.38 -78.8)"/>
  <path id="路径_87" data-name="路径 87" class="cls-2" d="M145.477,517.912a4.48,4.48,0,0,1-2.018-.467l-.02-.01a29.619,29.619,0,0,1-4.049-2.737c-.874-.692-1.621-1.365-2.28-1.958-.281-.253-.547-.493-.811-.724a2.355,2.355,0,0,1-.819-1.735l1.453-.016a.872.872,0,0,0,.315.634c.272.238.541.481.827.738.675.608,1.372,1.236,2.211,1.9l0,0a28.563,28.563,0,0,0,3.831,2.593,3.156,3.156,0,0,0,2.716,0,28.6,28.6,0,0,0,3.831-2.593l0,0c.838-.664,1.536-1.292,2.211-1.9.285-.257.555-.5.827-.738a.854.854,0,0,0,.314-.659l1.453-.049a2.329,2.329,0,0,1-.817,1.824c-.264.231-.53.471-.812.724-.659.594-1.406,1.266-2.28,1.958a29.639,29.639,0,0,1-4.049,2.737l-.02.01A4.477,4.477,0,0,1,145.477,517.912Z" transform="translate(-135.477 -498.877)"/>
  <path id="路径_88" data-name="路径 88" class="cls-1" d="M145.477,658.962a4.481,4.481,0,0,1-2.018-.467l-.02-.01a29.62,29.62,0,0,1-4.049-2.737c-.874-.692-1.621-1.365-2.28-1.958-.281-.254-.547-.493-.811-.724a2.355,2.355,0,0,1-.819-1.735l1.453-.016a.872.872,0,0,0,.315.634c.272.238.541.481.827.738.675.607,1.372,1.236,2.211,1.9l0,0a28.6,28.6,0,0,0,3.831,2.593,3.156,3.156,0,0,0,2.716,0,28.59,28.59,0,0,0,3.831-2.593l0,0c.838-.664,1.536-1.292,2.211-1.9.285-.257.555-.5.827-.738a.854.854,0,0,0,.314-.659l1.453-.049a2.329,2.329,0,0,1-.817,1.824c-.264.231-.53.471-.812.724-.659.594-1.406,1.266-2.28,1.958a29.65,29.65,0,0,1-4.049,2.737l-.02.01A4.484,4.484,0,0,1,145.477,658.962Z" transform="translate(-135.477 -636.228)"/>
</svg>
